<svg width="36" height="36" viewBox="0 0 36 36" fill="none" xmlns="http://www.w3.org/2000/svg">
<circle cx="18" cy="18" r="18" fill="black"/>
<path d="M9.93063 11.2065L9.62931 10.9052L9.42459 11.3146C9.32001 11.5238 9.23863 11.7438 9.18191 11.9706C9.11835 12.2249 9.08621 12.486 9.08621 12.748V13.0487C9.08621 13.3089 9.1077 13.5686 9.15048 13.8253L9.18375 14.0249C9.2391 14.357 9.3438 14.679 9.49438 14.9801C9.70277 15.3969 9.99514 15.7661 10.3531 16.0644L10.8966 16.5172C10.3043 16.5172 9.72309 16.3563 9.2152 16.0515L9.08621 15.9741V16.5273C9.08621 16.7611 9.11488 16.994 9.17158 17.2208C9.23505 17.4747 9.33309 17.7187 9.46293 17.9459L9.74877 18.4461C9.90922 18.7269 10.1186 18.9767 10.367 19.1837L10.5918 19.371C10.9139 19.6395 11.2734 19.8598 11.6588 20.025L12.3448 20.319C11.8672 20.4384 11.3701 20.4582 10.8844 20.3773L10.5345 20.319L10.7121 20.7631C10.8345 21.0691 10.9967 21.3577 11.1945 21.6214C11.3573 21.8384 11.5469 22.034 11.7587 22.2035L11.9822 22.3823C12.2229 22.5748 12.4884 22.7339 12.7716 22.8553L13.1874 23.0335C13.4676 23.1536 13.7693 23.2155 14.0741 23.2155H14.5172L14.4703 23.2625C14.0232 23.7096 13.4928 24.0648 12.9091 24.308C12.0586 24.6624 11.1463 24.8448 10.2249 24.8448L8 24.8448L8.02741 24.8722C8.12927 24.9741 8.24563 25.0603 8.37273 25.1281L9.11065 25.5216C10.2941 26.1528 11.5684 26.5963 12.8879 26.8362L13.6815 26.9023C14.5978 26.9787 15.5198 26.9516 16.4301 26.8216C17.2041 26.711 17.9632 26.5135 18.6929 26.2328L19.042 26.0986C19.6446 25.8668 20.222 25.5741 20.765 25.2249L21.396 24.8193C22.1176 24.3554 22.7772 23.8017 23.359 23.1714C24.2181 22.2407 24.931 21.1849 25.4732 20.0403L25.6337 19.7015C26.0656 18.7897 26.3733 17.8241 26.5487 16.8305L26.7828 15.5036C26.8126 15.3349 26.8276 15.1638 26.8276 14.9925V14.3448C27.4298 13.863 27.9882 13.3288 28.4961 12.7483L29 12.1724C28.2773 12.4133 27.5344 12.5887 26.7803 12.6964L26.6466 12.7155L27.2464 12.2357C27.4493 12.0733 27.6337 11.889 27.796 11.686L27.8096 11.6691C28.1168 11.285 28.3376 10.8392 28.4569 10.3621L27.4825 10.9467C26.9261 11.2805 26.3439 11.5694 25.7414 11.8103L25.2885 11.2669C24.9902 10.9089 24.621 10.6166 24.2043 10.4082C23.9031 10.2576 23.5811 10.1529 23.249 10.0975L23.2147 10.0918C22.8496 10.031 22.4773 10.0266 22.1109 10.079L21.7098 10.1363C21.5014 10.1661 21.2961 10.2145 21.0963 10.2811L21.0852 10.2848C20.5756 10.4547 20.1126 10.7408 19.7328 11.1206C19.5154 11.3381 19.3279 11.5836 19.1753 11.8506L19.0437 12.0809C18.8033 12.5016 18.6276 12.956 18.5225 13.429C18.3881 14.0339 18.3713 14.659 18.4732 15.2702L18.5 15.431L18.4718 15.427C17.6471 15.3092 16.8333 15.1252 16.0381 14.8767L15.9517 14.8497C14.8782 14.5142 13.8467 14.0569 12.8774 13.4867C11.8026 12.8544 10.8124 12.0882 9.93063 11.2065Z" fill="white" stroke="white" stroke-width="0.1"/>
</svg>
